<?xml version="1.0" encoding="UTF-8"?>
<svg width="40" height="40" viewBox="0 0 40 40" fill="none" xmlns="http://www.w3.org/2000/svg">
  <path d="M20 0C8.954 0 0 8.954 0 20s8.954 20 20 20 20-8.954 20-20S31.046 0 20 0zm0 37.5c-9.665 0-17.5-7.835-17.5-17.5S10.335 2.5 20 2.5 37.5 10.335 37.5 20 29.665 37.5 20 37.5z" fill="#8a2be2"/>
  <path d="M27.5 11.25h-15c-.69 0-1.25.56-1.25 1.25v15c0 .69.56 1.25 1.25 1.25h15c.69 0 1.25-.56 1.25-1.25v-15c0-.69-.56-1.25-1.25-1.25zm-1.25 15h-12.5v-12.5h12.5v12.5z" fill="#8a2be2"/>
  <path d="M20 16.25c-2.07 0-3.75 1.68-3.75 3.75s1.68 3.75 3.75 3.75 3.75-1.68 3.75-3.75-1.68-3.75-3.75-3.75zm0 5c-.69 0-1.25-.56-1.25-1.25s.56-1.25 1.25-1.25 1.25.56 1.25 1.25-.56 1.25-1.25 1.25z" fill="#8a2be2"/>
</svg>